<?xml version="1.0" encoding="utf-8"?>
<!-- Generator: Adobe Illustrator 22.1.0, SVG Export Plug-In . SVG Version: 6.00 Build 0)  -->
<svg version="1.1" id="Layer_1" xmlns="http://www.w3.org/2000/svg" xmlns:xlink="http://www.w3.org/1999/xlink" x="0px" y="0px"
	 viewBox="0 0 244 89" style="enable-background:new 0 0 244 89;" xml:space="preserve">
<path d="M153.7,57.6h-10.1v-7.1h9.6v-2.3h-9.6v-6.6h10.1v-2.3H141v20.5h12.7V57.6z M165.7,59.9l7.5-20.5h-2.7l-6.1,17.4h-0.1
	l-6.1-17.4h-2.7l7.5,20.5H165.7z M188.5,57.6h-10.1v-7.1h9.6v-2.3h-9.6v-6.6h10.1v-2.3h-12.7v20.5h12.7V57.6z M194.6,59.9V43.8h0.1
	l11.2,16.1h2.5V39.3h-2.5v16.1h-0.1l-11.2-16.1h-2.5v20.5H194.6z M220.4,59.9V41.7h6.5v-2.3h-15.5v2.3h6.5v18.2H220.4z M228.7,54.2
	c0.2,3.6,3.2,6,7.6,6c4.7,0,7.7-2.3,7.7-6.1c0-2.9-1.7-4.6-6-5.6l-2.1-0.6c-2.8-0.7-3.9-1.6-3.9-3.2c0-2,1.8-3.4,4.5-3.4
	c2.7,0,4.4,1.4,4.7,3.6h2.6c-0.1-3.4-3.1-5.9-7.1-5.9c-4.3,0-7.2,2.4-7.2,5.8c0,2.8,1.7,4.5,5.4,5.4l2.6,0.7c2.8,0.7,4,1.8,4,3.5
	c0,2-2,3.5-4.8,3.5c-2.9,0-5-1.5-5.3-3.7H228.7z M119.4,0h1.7c-6.5,27.3-13.5,54.5-20.2,81.7c-0.6,2.4-1.2,4.9-2,7.3h-1.7
	C104.6,59.4,111.9,29.6,119.4,0L119.4,0z M0,28.4h15.3L15.2,35H12v28.9h11.4v-7.1h7.6v13.9L0,70.8v-6.9h3.3V35H0C0,35,0,30.6,0,28.4
	z M41.9,28.4h15V35h-3c0,0,5,18.2,7.8,26.8c3.1-8.4,8-26.8,8-26.8h-3v-6.6h14.9V35h-3.2c0,0-7.5,24-11.7,35.7c-3.2-0.1-10,0-10,0
	s-2.5-6.9-3.5-10.2c-2.7-8.3-8.2-25.6-8.2-25.6h-3.2C41.9,34.9,41.8,30.4,41.9,28.4L41.9,28.4z"/>
</svg>
