<svg xmlns="http://www.w3.org/2000/svg" viewBox="0 0 38 30"><title>cinema</title><path d="M24.29,20.24H10.41a1.25,1.25,0,0,0-1.25,1.25v2.94a1.26,1.26,0,0,0,1.25,1.26H24.29a1.26,1.26,0,0,0,1.25-1.26V21.49A1.25,1.25,0,0,0,24.29,20.24Zm-.25,4H10.66V21.74H24Z"/><path d="M12.52,9.34a3.16,3.16,0,1,0-3.16,3.15A3.16,3.16,0,0,0,12.52,9.34Zm-4.81,0A1.66,1.66,0,1,1,9.36,11,1.65,1.65,0,0,1,7.71,9.34Z"/><path d="M32.12,9.24a6.29,6.29,0,1,0-12.3,1.86H18.3a9.3,9.3,0,0,0,.18-1.76A9.12,9.12,0,1,0,4.26,16.87V28.73a1.07,1.07,0,0,0,.32.73,1,1,0,0,0,.72.29H28.83a1,1,0,0,0,.74-.31,1,1,0,0,0,.3-.72V14A6.25,6.25,0,0,0,32.12,9.24ZM25.83,4.46A4.78,4.78,0,1,1,21,9.24,4.79,4.79,0,0,1,25.83,4.46ZM1.75,9.34a7.62,7.62,0,1,1,7.61,7.59A7.62,7.62,0,0,1,1.75,9.34ZM28.37,28.25H5.76V17.69a9,9,0,0,0,3.6.74,9.11,9.11,0,0,0,8.5-5.83h2.66A6.28,6.28,0,0,0,28.37,15Z"/><path d="M24.94,10.56a1.52,1.52,0,0,0,.77.41,1.49,1.49,0,0,0,.86-.08,1.55,1.55,0,0,0,.68-.56,1.5,1.5,0,0,0-2.08-2.08,1.55,1.55,0,0,0-.56.68,1.49,1.49,0,0,0-.08.86A1.52,1.52,0,0,0,24.94,10.56Z"/><path d="M35.75,13.5h0A3.82,3.82,0,0,0,33,14.61a4.25,4.25,0,0,0-.58.76H28.37v1.5H32a3.29,3.29,0,0,0-.05.44v6a2.85,2.85,0,0,0,0,.29H28.37v1.5h4a4,4,0,0,0,.66.92,3.8,3.8,0,0,0,2.71,1.12h1.41V13.5Zm-.09,12.16a2.32,2.32,0,0,1-2.25-2.32v-6A2.34,2.34,0,0,1,35.66,15Z"/></svg>