<svg xmlns="http://www.w3.org/2000/svg" viewBox="0 0 30 30"><title>community</title><path d="M8.47,26H2.64l-.49-6.81-1.9-.95V14.07A3.55,3.55,0,0,1,3.8,10.52H7.53a3.55,3.55,0,0,1,3.21,2l-1.35.64A2.07,2.07,0,0,0,7.53,12H3.8a2.05,2.05,0,0,0-2,2.05v3.27l1.83.91L4,24.52H8.47Z"/><path d="M5.67,9.22A3.55,3.55,0,1,1,9.22,5.67,3.56,3.56,0,0,1,5.67,9.22Zm0-5.6A2.05,2.05,0,1,0,7.72,5.67,2.05,2.05,0,0,0,5.67,3.62Z"/><path d="M27.37,26H21.53v-1.5H26l.45-6.27,1.83-.91V14.07A2.05,2.05,0,0,0,26.2,12H22.47a2.07,2.07,0,0,0-1.86,1.17l-1.35-.64a3.55,3.55,0,0,1,3.21-2H26.2a3.55,3.55,0,0,1,3.55,3.55v4.19l-1.9.95Z"/><path d="M24.33,9.22a3.55,3.55,0,1,1,3.55-3.55A3.56,3.56,0,0,1,24.33,9.22Zm0-5.6a2.05,2.05,0,1,0,2.05,2.05A2.05,2.05,0,0,0,24.33,3.62Z"/><path d="M18.5,29.75h-7L11,22.16l-2.37-.48V15a4.49,4.49,0,0,1,4.48-4.48h3.74A4.49,4.49,0,0,1,21.35,15v6.68L19,22.16Zm-5.6-1.5h4.2l.45-7.34,2.3-.46V15a3,3,0,0,0-3-3H13.13a3,3,0,0,0-3,3v5.45l2.3.46Z"/><path d="M15,9.22a4.49,4.49,0,1,1,4.48-4.49A4.49,4.49,0,0,1,15,9.22Zm0-7.47a3,3,0,1,0,3,3A3,3,0,0,0,15,1.75Z"/></svg>