<svg xmlns="http://www.w3.org/2000/svg" viewBox="0 0 29 30"><title>crafty</title><path d="M2.46,28.31a2.18,2.18,0,0,1-1.55-.66,2.17,2.17,0,0,1-.14-3L18.69,2.29a5.32,5.32,0,0,1,3.83-2,5.49,5.49,0,0,1,4.2,1.56,5.4,5.4,0,0,1-.45,8L3.89,27.79A2.25,2.25,0,0,1,2.46,28.31ZM22.88,1.75h-.26a3.8,3.8,0,0,0-2.76,1.46L1.94,25.61a.72.72,0,0,0,1,1L25.33,8.7A3.8,3.8,0,0,0,26.8,5.88a3.86,3.86,0,0,0-1.13-3A4,4,0,0,0,22.88,1.75ZM1.36,25.14h0Z"/><rect x="15.2" y="18.81" width="1.5" height="11.92" transform="translate(-12.82 18.42) rotate(-44.77)"/><path d="M23.14,19.15a4.88,4.88,0,0,1-3.46-1.41L9.35,7.48a3.44,3.44,0,0,0-4.8,0,3.43,3.43,0,0,0,0,4.8l4,4L7.49,17.34l-4-4a4.93,4.93,0,0,1,0-6.92,5,5,0,0,1,6.92,0L20.74,16.68a3.39,3.39,0,1,0,4.8-4.8l-4.4-4.4L22.2,6.42l4.4,4.4a5,5,0,0,1,0,6.92A4.88,4.88,0,0,1,23.14,19.15Z"/><rect x="16.66" y="1.18" width="1.5" height="3.01" transform="translate(3.2 13.1) rotate(-45)"/><rect x="19.96" y="6.07" width="3.62" height="1.5" transform="translate(1.33 16.94) rotate(-43.73)"/></svg>