<svg xmlns="http://www.w3.org/2000/svg" viewBox="0 0 27 30"><title>education</title><path d="M23.22,9.18C20.73,7.23,18.06,7.66,15.7,8c-.66.11-1.28.19-1.88.24-.34-2.67-2.32-5.75-5.14-6.6L8.25,3.12c2.15.64,3.72,3.06,4.06,5.15-.56,0-1.13-.13-1.74-.23-2.36-.38-5-.81-7.52,1.14C-.24,11.75-1.1,19,2.93,25.26c3.3,5.14,6.73,4.64,9,4.3a6.85,6.85,0,0,1,2.39,0,14.19,14.19,0,0,0,2.08.19c2.05,0,4.52-.74,6.93-4.49C27.36,19,26.5,11.75,23.22,9.18ZM22.07,24.45c-2.77,4.33-5.41,3.94-7.52,3.62a10.64,10.64,0,0,0-1.42-.14,10.5,10.5,0,0,0-1.41.14c-2.12.32-4.75.71-7.53-3.62C.42,18.57,1.52,12.28,4,10.36c2-1.54,4.09-1.2,6.35-.83a18,18,0,0,0,2.8.3,18,18,0,0,0,2.81-.3c2.25-.37,4.38-.71,6.35.83C24.75,12.28,25.85,18.57,22.07,24.45Z"/><path d="M18.17,5.57A4.44,4.44,0,0,0,19.48,2.4V.25h-.75a4.47,4.47,0,0,0-4.48,4.48V6.88H15A4.44,4.44,0,0,0,18.17,5.57Zm-2.42-.84a3,3,0,0,1,.87-2.11A3.11,3.11,0,0,1,18,1.84V2.4a3,3,0,0,1-2.23,2.89Z"/></svg>