<svg xmlns="http://www.w3.org/2000/svg" viewBox="0 0 32 30"><title>family</title><path d="M10.87,16.25A2.25,2.25,0,1,0,13.1,18.5,2.24,2.24,0,0,0,10.87,16.25Zm0,3a.75.75,0,1,1,.73-.75A.74.74,0,0,1,10.87,19.25Z"/><path d="M20.73,16.25A2.25,2.25,0,1,0,23,18.5,2.24,2.24,0,0,0,20.73,16.25Zm0,3a.75.75,0,1,1,.73-.75A.74.74,0,0,1,20.73,19.25Z"/><path d="M27.51,12.35A12.63,12.63,0,0,0,17.69,4.4a6.1,6.1,0,0,1,5-2.65V.25a7.62,7.62,0,0,0-6.7,4H15.8a12.61,12.61,0,0,0-11.71,8.1,4.74,4.74,0,0,0,0,9.3,12.51,12.51,0,0,0,23.42,0,4.74,4.74,0,0,0,0-9.3Zm-.61,7.87-.49,0-.16.46a11,11,0,0,1-20.9,0l-.16-.46-.49,0a3.23,3.23,0,0,1,0-6.44l.49,0,.16-.46a11.1,11.1,0,0,1,10-7.51A7.76,7.76,0,0,0,15.05,8h1.5a6.29,6.29,0,0,1,.39-2.18,11.11,11.11,0,0,1,9.31,7.46l.16.46.49,0a3.23,3.23,0,0,1,0,6.44Z"/></svg>