<svg xmlns="http://www.w3.org/2000/svg" viewBox="0 0 30 30"><title>foodie</title><rect x="5.67" y="1.75" width="1.3" height="9.2" transform="translate(-2.64 6.3) rotate(-44.84)"/><polygon points="21.76 18.92 20.84 19.83 27.92 26.96 26.82 28.08 19.73 20.95 18.81 21.87 26.82 29.92 29.76 26.96 21.76 18.92"/><path d="M15.17,23.3,27.78,10.62a6.42,6.42,0,0,0,0-9.06l-.46-.46L15.68,12.81l-2.12-2.14a2.19,2.19,0,0,0,0-3.06L6.06.08,5.14,1l7.49,7.52a.91.91,0,0,1,0,1.25L9.71,12.7a.88.88,0,0,1-1.22,0L1,5.17l-.92.92,7.48,7.53a2.19,2.19,0,0,0,3.06,0l2.12,2.13-2.12,2.13-.42.42h0L1.6,27l2.94,3L12,22.38l-.92-.92L4.54,28.08,3.44,27l7.68-7.73ZM11.53,12.71l1.11-1.12,2.12,2.14-1.1,1.11ZM27.29,3a5.13,5.13,0,0,1-.43,6.74L15.17,21.46,12,18.31Z"/></svg>