<svg xmlns="http://www.w3.org/2000/svg" viewBox="0 0 30 30"><title>sports</title><path d="M15,.25A14.75,14.75,0,1,0,29.75,15,14.77,14.77,0,0,0,15,.25Zm.47,14.06A14.86,14.86,0,0,1,13.63,8.8c4.59-.87,8.9.19,14.56,7.33a13.17,13.17,0,0,1-1.75,5.53,14.39,14.39,0,0,0-2.1-3.07A14.42,14.42,0,0,0,15.47,14.31ZM9.14,17.58C6,13.44,6.12,7.45,7.28,4.25a13.11,13.11,0,0,1,6.18-2.4,14.33,14.33,0,0,0-1.19,3.52A14.37,14.37,0,0,0,14,14.83,14.38,14.38,0,0,1,9.14,17.58Zm19.05-3.8c-5.8-6.68-10.46-7.26-14.62-6.5a9.1,9.1,0,0,1,.17-1.62,13.1,13.1,0,0,1,1.47-3.9A13.27,13.27,0,0,1,28.19,13.78ZM5.28,6A16.6,16.6,0,0,0,7.55,18a8.72,8.72,0,0,1-1.46.12A13.26,13.26,0,0,1,2,17.39,12.58,12.58,0,0,1,1.75,15,13.24,13.24,0,0,1,5.28,6ZM2.4,19.08a14.5,14.5,0,0,0,3.69.49,14.51,14.51,0,0,0,9.15-3.78,14.61,14.61,0,0,1,5.55,1.84c-2.33,4.38-5.86,7-15.13,6.76A13.35,13.35,0,0,1,2.4,19.08ZM15,28.25a13.11,13.11,0,0,1-7.52-2.36c8.55-.14,12.18-3,14.56-7.4a11.08,11.08,0,0,1,1.19,1.1,13.23,13.23,0,0,1,2.23,3.52A13.24,13.24,0,0,1,15,28.25Z"/></svg>