<svg xmlns="http://www.w3.org/2000/svg" viewBox="0 0 38 30"><title>theater</title><path d="M11.55,13.34l1.23-.67A3.79,3.79,0,0,0,9,10.75a7.14,7.14,0,0,0-3.29,1.9l1,1a5.63,5.63,0,0,1,2.53-1.49A2.39,2.39,0,0,1,11.55,13.34Z"/><path d="M18.21,19H9a.7.7,0,0,0-.6.34.69.69,0,0,0,0,.68,7.26,7.26,0,0,0,3.13,3.09l.1,0a6.52,6.52,0,0,0,2.06.46,7.38,7.38,0,0,0,2-.46l.16-.06A7.14,7.14,0,0,0,18.83,20a.69.69,0,0,0,0-.68A.7.7,0,0,0,18.21,19Zm-3,2.78-.13.05a6.65,6.65,0,0,1-1.49.37,5.41,5.41,0,0,1-1.55-.36l-.09,0a4.93,4.93,0,0,1-1.71-1.41h6.62A4.6,4.6,0,0,1,15.26,21.8Z"/><path d="M18.21,10.82a3.66,3.66,0,0,0-3.8,1.92l1.23.66A2.33,2.33,0,0,1,18,12.19a5.18,5.18,0,0,1,2.51,1.48l1-.94A6.5,6.5,0,0,0,18.21,10.82Z"/><path d="M23.55,21.43C25.75,14.46,27,1.61,27,1.06a.69.69,0,0,0-.31-.64.7.7,0,0,0-.71,0A27.17,27.17,0,0,1,13.88,3h-.57A26.45,26.45,0,0,1,1.33.38a.69.69,0,0,0-.72,0,.71.71,0,0,0-.31.64c0,.55,1.27,13.4,3.47,20.38,1.79,5.64,4.68,8.19,9.27,8.19h.59C18.59,29.83,21.66,27.32,23.55,21.43Zm-9.92,6.79c-4.31.19-6.86-2-8.52-7.21C3.34,15.42,2.19,5.59,1.82,2.16A27.44,27.44,0,0,0,13.34,4.44h.5A28.3,28.3,0,0,0,25.5,2.15C25.14,5.57,24,15.41,22.21,21,20.53,26.26,18,28.42,13.63,28.22Z"/><path d="M37.67.47a.71.71,0,0,0-.73,0A23.65,23.65,0,0,1,27,3.3L27,4.7a25.13,25.13,0,0,0,9.44-2.41C36.1,5.78,35,15.51,33.19,21.08c-1.69,5.24-4.26,7.4-8.58,7.21a6.41,6.41,0,0,1-3.77-.9l-.68,1.22a7.65,7.65,0,0,0,4.44,1.08h.6c4.62,0,7.51-2.55,9.32-8.2,2.21-7,3.42-19.83,3.47-20.37A.7.7,0,0,0,37.67.47Z"/><path d="M26.8,19.48l-.15-.06a6.47,6.47,0,0,0-2-.46l-.09,1.4a5.11,5.11,0,0,1,1.56.37l.08,0a5.82,5.82,0,0,1,2.39,2.42l1.25-.63A7.13,7.13,0,0,0,26.8,19.48Z"/><path d="M31.54,11a4.93,4.93,0,0,1-2.45,1.48,3.67,3.67,0,0,1-2.1-.94l-.95,1a5.06,5.06,0,0,0,3,1.33h.09c1.55,0,3.22-1.71,3.4-1.91Z"/></svg>