<svg xmlns="http://www.w3.org/2000/svg" viewBox="0 0 38 38"><title>calendar</title><path d="M37.75,36.75H.25V3.2H9.31V0h1.5V3.2H27.37V0h1.5V3.2h8.88Zm-36-1.5h34.5v-23H1.75Zm0-24.5h34.5v-6H28.87V7h-1.5V4.7H10.81V7H9.31V4.7H1.75Zm30.83,20H25.16V25h7.42Zm-5.92-1.5h4.42v-2.8H26.66Zm-3.95,1.5H15.29V25h7.42Zm-5.92-1.5h4.42v-2.8H16.79Zm-3.95,1.5H5.42V25h7.42Zm-5.92-1.5h4.42v-2.8H6.92Zm25.66-6.75H25.16V16.73h7.42ZM26.66,21h4.42V18.23H26.66Zm-3.95,1.5H15.29V16.73h7.42ZM16.79,21h4.42V18.23H16.79Zm-3.95,1.5H5.42V16.73h7.42ZM6.92,21h4.42V18.23H6.92Z"/></svg>